<svg width="20" height="20" viewBox="0 0 20 20" fill="none" xmlns="http://www.w3.org/2000/svg">
<path d="M0.176172 3.98924C0.0665234 4.21489 0 4.46432 0 4.73074V16.2692C0 16.5355 0.0664453 16.7849 0.176016 17.0105L6.78863 10.5L0.176172 3.98924Z" fill="#6D6D6D"/>
<path d="M12.3828 11.3159L10.3752 13.2156C10.2607 13.3283 10.1108 13.3847 9.96091 13.3847C9.81103 13.3847 9.66107 13.3283 9.54666 13.2156L7.61713 11.3158L1.00439 17.8264C1.23361 17.9344 1.48709 18 1.75775 18H18.2421C18.5127 18 18.766 17.9345 18.9952 17.8265L12.3828 11.3159Z" fill="#6D6D6D"/>
<path d="M19.8241 3.9896L13.2115 10.5001L19.8239 17.0108C19.9335 16.7851 20 16.5357 20 16.2693V4.73083C20 4.46457 19.9337 4.21518 19.8241 3.9896Z" fill="#6D6D6D"/>
<path d="M18.2422 3H1.75785C1.48726 3 1.23394 3.0655 1.00476 3.17346L9.96097 11.9919L11.9684 10.0924C11.9684 10.0924 11.9685 10.0922 11.9685 10.0921C11.9686 10.092 11.9687 10.092 11.9687 10.092L18.9956 3.17362C18.7664 3.06558 18.5129 3 18.2422 3Z" fill="#6D6D6D"/>
</svg>
