<svg width="20" height="20" viewBox="0 0 20 20" fill="none" xmlns="http://www.w3.org/2000/svg">
<path d="M10.5002 0C7.73117 0 5.48639 2.11616 5.48639 4.72655C5.48639 7.33693 5.48639 8.2031 5.48639 8.2031H7.97258C7.97258 8.2031 7.97258 6.04252 7.97258 4.72655C7.97258 3.41057 9.10425 2.34374 10.5002 2.34374C11.8962 2.34374 13.0278 3.41057 13.0278 4.72655C13.0278 6.04252 13.0278 8.2031 13.0278 8.2031H15.514C15.514 8.2031 15.514 7.33693 15.514 4.72655C15.514 2.11616 13.2692 0 10.5002 0Z" fill="#6D6D6D"/>
<path d="M3 9.375V20H18V9.375H3ZM11.1215 14.8228V16.7383H9.87845V14.8228C9.50727 14.6199 9.25691 14.2414 9.25691 13.8086C9.25691 13.1624 9.81456 12.6367 10.5 12.6367C11.1854 12.6367 11.7431 13.1624 11.7431 13.8086C11.7431 14.2414 11.4927 14.6199 11.1215 14.8228Z" fill="#6D6D6D"/>
</svg>
